<svg width="97" height="97" viewBox="0 0 97 97" fill="none" xmlns="http://www.w3.org/2000/svg">
<g clip-path="url(#clip0_175_29)">
<path d="M60.625 3.03125C60.625 2.22731 60.3056 1.4563 59.7372 0.887833C59.1687 0.319363 58.3977 0 57.5938 0L39.4062 0C38.6023 0 37.8313 0.319363 37.2628 0.887833C36.6944 1.4563 36.375 2.22731 36.375 3.03125C36.375 3.83519 36.0556 4.6062 35.4872 5.17467C34.9187 5.74314 34.1477 6.0625 33.3438 6.0625C32.5398 6.0625 31.7688 6.38186 31.2003 6.95033C30.6319 7.5188 30.3125 8.28981 30.3125 9.09375V12.125C30.3125 12.9289 30.6319 13.6999 31.2003 14.2684C31.7688 14.8369 32.5398 15.1562 33.3438 15.1562H63.6562C64.4602 15.1562 65.2312 14.8369 65.7997 14.2684C66.3681 13.6999 66.6875 12.9289 66.6875 12.125V9.09375C66.6875 8.28981 66.3681 7.5188 65.7997 6.95033C65.2312 6.38186 64.4602 6.0625 63.6562 6.0625C62.8523 6.0625 62.0813 5.74314 61.5128 5.17467C60.9444 4.6062 60.625 3.83519 60.625 3.03125Z" fill="#F231A5"/>
<path d="M24.7653 6.0625H21.2188C18.8069 6.0625 16.4939 7.02059 14.7885 8.726C13.0831 10.4314 12.125 12.7444 12.125 15.1562V87.9062C12.125 90.3181 13.0831 92.6311 14.7885 94.3365C16.4939 96.0419 18.8069 97 21.2188 97H75.7812C78.1931 97 80.5061 96.0419 82.2115 94.3365C83.9169 92.6311 84.875 90.3181 84.875 87.9062V15.1562C84.875 12.7444 83.9169 10.4314 82.2115 8.726C80.5061 7.02059 78.1931 6.0625 75.7812 6.0625H72.2347C72.5681 7.00825 72.75 8.03281 72.75 9.09375V12.125C72.75 14.5368 71.7919 16.8498 70.0865 18.5553C68.3811 20.2607 66.0681 21.2187 63.6562 21.2188H33.3438C30.9319 21.2187 28.6189 20.2607 26.9135 18.5553C25.2081 16.8498 24.25 14.5368 24.25 12.125V9.09375C24.25 8.03281 24.4319 7.00825 24.7653 6.0625ZM60.625 42.4375C60.625 40.8296 61.2637 39.2876 62.4007 38.1507C63.5376 37.0137 65.0796 36.375 66.6875 36.375C68.2954 36.375 69.8374 37.0137 70.9743 38.1507C72.1113 39.2876 72.75 40.8296 72.75 42.4375V72.75C72.75 74.3579 72.1113 75.8999 70.9743 77.0368C69.8374 78.1738 68.2954 78.8125 66.6875 78.8125C65.0796 78.8125 63.5376 78.1738 62.4007 77.0368C61.2637 75.8999 60.625 74.3579 60.625 72.75V42.4375ZM24.25 66.6875C24.25 65.0796 24.8887 63.5376 26.0257 62.4007C27.1626 61.2637 28.7046 60.625 30.3125 60.625C31.9204 60.625 33.4624 61.2637 34.5993 62.4007C35.7363 63.5376 36.375 65.0796 36.375 66.6875V72.75C36.375 74.3579 35.7363 75.8999 34.5993 77.0368C33.4624 78.1738 31.9204 78.8125 30.3125 78.8125C28.7046 78.8125 27.1626 78.1738 26.0257 77.0368C24.8887 75.8999 24.25 74.3579 24.25 72.75V66.6875ZM48.5 48.5C50.1079 48.5 51.6499 49.1387 52.7868 50.2757C53.9238 51.4126 54.5625 52.9546 54.5625 54.5625V72.75C54.5625 74.3579 53.9238 75.8999 52.7868 77.0368C51.6499 78.1738 50.1079 78.8125 48.5 78.8125C46.8921 78.8125 45.3501 78.1738 44.2132 77.0368C43.0762 75.8999 42.4375 74.3579 42.4375 72.75V54.5625C42.4375 52.9546 43.0762 51.4126 44.2132 50.2757C45.3501 49.1387 46.8921 48.5 48.5 48.5Z" fill="#F231A5"/>
</g>
<defs>
<clipPath id="clip0_175_29">
<rect width="97" height="97" fill="white"/>
</clipPath>
</defs>
</svg>
