<svg width="150" height="200" viewBox="0 0 150 200" fill="none" xmlns="http://www.w3.org/2000/svg">
<path d="M93.75 0C95.4076 0 96.9973 0.65848 98.1694 1.83058C99.3415 3.00269 100 4.5924 100 6.25C100 7.9076 100.658 9.49732 101.831 10.6694C103.003 11.8415 104.592 12.5 106.25 12.5C107.908 12.5 109.497 13.1585 110.669 14.3306C111.842 15.5027 112.5 17.0924 112.5 18.75V25C112.5 26.6576 111.842 28.2473 110.669 29.4194C109.497 30.5915 107.908 31.25 106.25 31.25H43.75C42.0924 31.25 40.5027 30.5915 39.3306 29.4194C38.1585 28.2473 37.5 26.6576 37.5 25V18.75C37.5 17.0924 38.1585 15.5027 39.3306 14.3306C40.5027 13.1585 42.0924 12.5 43.75 12.5C45.4076 12.5 46.9973 11.8415 48.1694 10.6694C49.3415 9.49732 50 7.9076 50 6.25C50 4.5924 50.6585 3.00269 51.8306 1.83058C53.0027 0.65848 54.5924 0 56.25 0L93.75 0Z" fill="#00F0FF"/>
<path d="M12.5 31.25C12.5 29.5924 13.1585 28.0027 14.3306 26.8306C15.5027 25.6585 17.0924 25 18.75 25H25C26.6576 25 28.2473 24.3415 29.4194 23.1694C30.5915 21.9973 31.25 20.4076 31.25 18.75C31.25 17.0924 30.5915 15.5027 29.4194 14.3306C28.2473 13.1585 26.6576 12.5 25 12.5H18.75C13.7772 12.5 9.00806 14.4754 5.49175 17.9917C1.97544 21.5081 0 26.2772 0 31.25V181.25C0 186.223 1.97544 190.992 5.49175 194.508C9.00806 198.025 13.7772 200 18.75 200H131.25C136.223 200 140.992 198.025 144.508 194.508C148.025 190.992 150 186.223 150 181.25V31.25C150 26.2772 148.025 21.5081 144.508 17.9917C140.992 14.4754 136.223 12.5 131.25 12.5H125C123.342 12.5 121.753 13.1585 120.581 14.3306C119.408 15.5027 118.75 17.0924 118.75 18.75C118.75 20.4076 119.408 21.9973 120.581 23.1694C121.753 24.3415 123.342 25 125 25H131.25C132.908 25 134.497 25.6585 135.669 26.8306C136.842 28.0027 137.5 29.5924 137.5 31.25V181.25C137.5 182.908 136.842 184.497 135.669 185.669C134.497 186.842 132.908 187.5 131.25 187.5H18.75C17.0924 187.5 15.5027 186.842 14.3306 185.669C13.1585 184.497 12.5 182.908 12.5 181.25V31.25Z" fill="#00F0FF"/>
<path d="M100 87.5C100 84.1848 101.317 81.0054 103.661 78.6612C106.005 76.317 109.185 75 112.5 75C115.815 75 118.995 76.317 121.339 78.6612C123.683 81.0054 125 84.1848 125 87.5V150C125 153.315 123.683 156.495 121.339 158.839C118.995 161.183 115.815 162.5 112.5 162.5C109.185 162.5 106.005 161.183 103.661 158.839C101.317 156.495 100 153.315 100 150V87.5ZM25 137.5C25 134.185 26.317 131.005 28.6612 128.661C31.0054 126.317 34.1848 125 37.5 125C40.8152 125 43.9946 126.317 46.3388 128.661C48.683 131.005 50 134.185 50 137.5V150C50 153.315 48.683 156.495 46.3388 158.839C43.9946 161.183 40.8152 162.5 37.5 162.5C34.1848 162.5 31.0054 161.183 28.6612 158.839C26.317 156.495 25 153.315 25 150V137.5ZM75 100C71.6848 100 68.5054 101.317 66.1612 103.661C63.817 106.005 62.5 109.185 62.5 112.5V150C62.5 153.315 63.817 156.495 66.1612 158.839C68.5054 161.183 71.6848 162.5 75 162.5C78.3152 162.5 81.4946 161.183 83.8388 158.839C86.183 156.495 87.5 153.315 87.5 150V112.5C87.5 109.185 86.183 106.005 83.8388 103.661C81.4946 101.317 78.3152 100 75 100V100Z" fill="#00F0FF"/>
</svg>
