<svg width="97" height="97" viewBox="0 0 97 97" fill="none" xmlns="http://www.w3.org/2000/svg">
<path d="M76.1854 37.9917L59.0083 20.8146L64.7677 15.0552C66.317 13.5059 68.2206 12.7313 70.4785 12.7313C72.7338 12.7313 74.6361 13.5059 76.1854 15.0552L81.9448 20.8146C83.4941 22.3639 84.2687 24.2662 84.2687 26.5214C84.2687 28.7794 83.4941 30.683 81.9448 32.2323L76.1854 37.9917ZM12.125 84.875V67.6979L30.3125 49.5104L8.99268 27.9885L28.0895 8.89167L49.5104 30.4135L53.35 26.574L70.527 43.65L66.6875 47.4896L88.0073 69.0115L69.0114 88.0073L47.4895 66.5865L29.3021 84.875H12.125ZM36.0718 43.751L43.751 36.0719L38.901 31.2219L34.051 35.9708L28.3927 30.3125L33.1416 25.4625L27.9885 20.4104L20.4104 28.0896L36.0718 43.751ZM68.9104 76.5896L76.5895 68.9104L71.4364 63.8583L66.6875 68.6073L60.9281 62.949L65.7781 58.099L60.8271 53.249L53.1479 60.9281L68.9104 76.5896Z" fill="#F231A5"/>
</svg>
