<svg width="97" height="97" viewBox="0 0 97 97" fill="none" xmlns="http://www.w3.org/2000/svg">
<path d="M38.8 63.05L44.4583 57.2906L35.6677 48.5L44.4583 39.7094L38.8 33.95L24.25 48.5L38.8 63.05ZM58.2 63.05L72.75 48.5L58.2 33.95L52.5417 39.7094L61.3323 48.5L52.5417 57.2906L58.2 63.05ZM20.2083 84.875C17.9854 84.875 16.0818 84.0842 14.4975 82.5025C12.9158 80.9182 12.125 79.0146 12.125 76.7917V20.2083C12.125 17.9854 12.9158 16.0818 14.4975 14.4975C16.0818 12.9158 17.9854 12.125 20.2083 12.125H76.7917C79.0146 12.125 80.9182 12.9158 82.5025 14.4975C84.0842 16.0818 84.875 17.9854 84.875 20.2083V76.7917C84.875 79.0146 84.0842 80.9182 82.5025 82.5025C80.9182 84.0842 79.0146 84.875 76.7917 84.875H20.2083Z" fill="#F231A5"/>
</svg>
